HIERARCHY
ROOT Hips
{
	OFFSET 0.000000 0.000000 0.000000
	CHANNELS 6 Xposition Yposition Zposition Xrotation Yrotation Zrotation
	JOINT LeftUpLeg_virtual
	{
		OFFSET 0.000000 0.000000 0.000000
		CHANNELS 3 Xrotation Yrotation Zrotation
		JOINT LeftUpLeg
		{
			OFFSET 10.205400 -3.823500 0.155100
			CHANNELS 3 Xrotation Yrotation Zrotation
			JOINT LeftLeg
			{
				OFFSET 0.708757 -12.982077 0.567790
				CHANNELS 3 Xrotation Yrotation Zrotation
				JOINT LeftFoot
				{
					OFFSET -0.708756 -10.717838 -2.184338
					CHANNELS 3 Xrotation Yrotation Zrotation
					JOINT LeftToeBase
					{
						OFFSET 0.108149 -7.191104 7.560241
						CHANNELS 3 Xrotation Yrotation Zrotation
						JOINT LeftToe_End
						{
							OFFSET 0.070230 0.081724 4.490308
							CHANNELS 3 Xrotation Yrotation Zrotation
							End Site
							{
								OFFSET 0 0 0
							}
						}
					}
				}
			}
		}
	}
	JOINT RightUpLeg_virtual
	{
		OFFSET 0.000000 0.000000 0.000000
		CHANNELS 3 Xrotation Yrotation Zrotation
		JOINT RightUpLeg
		{
			OFFSET -10.205400 -3.823500 0.005500
			CHANNELS 3 Xrotation Yrotation Zrotation
			JOINT RightLeg
			{
				OFFSET -0.708756 -12.982134 0.610632
				CHANNELS 3 Xrotation Yrotation Zrotation
				JOINT RightFoot
				{
					OFFSET 0.708754 -10.717769 -1.945823
					CHANNELS 3 Xrotation Yrotation Zrotation
					JOINT RightToeBase
					{
						OFFSET -0.108140 -7.191069 7.372968
						CHANNELS 3 Xrotation Yrotation Zrotation
						JOINT RightToe_End
						{
							OFFSET -0.070227 0.081735 4.479403
							CHANNELS 3 Xrotation Yrotation Zrotation
							End Site
							{
								OFFSET 0 0 0
							}
						}
					}
				}
			}
		}
	}
	JOINT Spine_virtual
	{
		OFFSET 0.000000 0.000000 0.000000
		CHANNELS 3 Xrotation Yrotation Zrotation
		JOINT Spine
		{
			OFFSET 0.000000 6.876099 0.125700
			CHANNELS 3 Xrotation Yrotation Zrotation
			JOINT Spine1
			{
				OFFSET 0.000000 5.730043 0.104720
				CHANNELS 3 Xrotation Yrotation Zrotation
				JOINT Spine1_split
				{
					OFFSET 0.000000 5.730043 0.104720
					CHANNELS 3 Xrotation Yrotation Zrotation
					JOINT Spine2
					{
						OFFSET 0.000000 5.730043 0.104720
						CHANNELS 3 Xrotation Yrotation Zrotation
						JOINT Neck_virtual
						{
							OFFSET 0.000000 0.000000 0.000000
							CHANNELS 3 Xrotation Yrotation Zrotation
							JOINT Neck
							{
								OFFSET 0.000000 10.314075 0.188496
								CHANNELS 3 Xrotation Yrotation Zrotation
								JOINT Head
								{
									OFFSET 0.000000 7.643700 -2.377400
									CHANNELS 3 Xrotation Yrotation Zrotation
									JOINT HeadTop_End
									{
										OFFSET 0.000000 43.788605 -13.619600
										CHANNELS 3 Xrotation Yrotation Zrotation
										End Site
										{
											OFFSET 0 0 0
										}
									}
								}
							}
						}
						JOINT LeftShoulder_virtual
						{
							OFFSET 0.000000 0.000000 0.000000
							CHANNELS 3 Xrotation Yrotation Zrotation
							JOINT LeftShoulder
							{
								OFFSET 2.196100 4.412489 0.087492
								CHANNELS 3 Xrotation Yrotation Zrotation
								JOINT LeftShoulder_split
								{
									OFFSET 2.196100 4.412489 0.087492
									CHANNELS 3 Xrotation Yrotation Zrotation
									JOINT LeftArm
									{
										OFFSET 8.771219 -2.981674 -0.026999
										CHANNELS 3 Xrotation Yrotation Zrotation
										JOINT LeftForeArm
										{
											OFFSET 8.512804 0.000000 -0.000000
											CHANNELS 3 Xrotation Yrotation Zrotation
											JOINT LeftHand
											{
												OFFSET 18.484802 0.000000 -0.000000
												CHANNELS 3 Xrotation Yrotation Zrotation
												End Site
												{
													OFFSET 0 0 0
												}
											}
										}
									}
								}
							}
						}
						JOINT RightShoulder_virtual
						{
							OFFSET 0.000000 0.000000 0.000000
							CHANNELS 3 Xrotation Yrotation Zrotation
							JOINT RightShoulder
							{
								OFFSET -2.196100 4.412496 0.070690
								CHANNELS 3 Xrotation Yrotation Zrotation
								JOINT RightShoulder_split
								{
									OFFSET -2.196100 4.412496 0.070690
									CHANNELS 3 Xrotation Yrotation Zrotation
									JOINT RightArm
									{
										OFFSET -8.771282 -2.981682 -0.094208
										CHANNELS 3 Xrotation Yrotation Zrotation
										JOINT RightForeArm
										{
											OFFSET -8.494598 0.000000 0.000000
											CHANNELS 3 Xrotation Yrotation Zrotation
											JOINT RightHand
											{
												OFFSET -18.483803 0.000000 0.000001
												CHANNELS 3 Xrotation Yrotation Zrotation
												End Site
												{
													OFFSET 0 0 0
												}
											}
										}
									}
								}
							}
						}
					}
				}
			}
		}
	}
}
MOTION
Frames: 4
Frame Time: 0.03333333
-1.393706 32.763268 5.519405 0.000000 0.000000 0.000000 176.005178 -61.615150 178.478772 -0.940348 18.380589 17.663008 25.154296 18.263320 1.521854 -17.257132 8.015036 -30.173983 -7.171524 2.080714 -0.478513 0.000000 0.000000 0.000000 175.359356 -60.792536 177.590232 -11.281184 -17.734865 -17.839278 16.036103 -14.015758 1.814508 -2.806271 -0.660637 7.088178 -4.224233 -19.435051 6.181540 0.000000 0.000000 0.000000 174.568693 -65.267758 176.090842 9.415709 -0.785977 -0.204031 0.065530 -1.267338 2.104616 0.943877 -0.833481 0.026809 0.000000 0.000000 0.000000 -2.154899 -1.218013 2.508939 -4.250793 21.876929 4.340541 2.124444 23.711705 -8.071810 0.000000 0.000000 0.000000 -2.059601 -0.700768 2.116688 1.037188 1.379880 -8.481134 2.127342 -3.709986 -1.596442 -0.677012 -7.420704 -58.677902 4.920404 -16.529768 -6.099002 0.000000 0.000000 0.000000 -1.598692 -1.119053 1.687783 1.916624 -2.048706 18.750777 -2.963660 -1.306439 -0.458790 16.540688 27.562388 45.346350 16.350863 26.306836 -6.095328 0.000000 0.000000 0.000000 
-1.324768 32.546982 4.432307 0.000000 0.000000 0.000000 176.421874 -58.058350 178.967840 0.661517 20.045693 19.453420 26.705391 21.061486 0.943650 -15.691648 9.113909 -31.392465 -6.083830 2.323891 -1.308136 0.000000 0.000000 0.000000 175.835789 -57.248433 178.061147 -13.056669 -18.160168 -16.139969 16.965083 -12.801880 1.770811 -1.909409 0.596286 7.657396 -4.293202 -19.162439 5.143752 0.000000 0.000000 0.000000 175.692683 -61.319813 177.432223 9.576877 -1.334373 -0.487889 0.117991 -1.632083 2.656061 1.032792 -0.574807 -0.024659 0.000000 0.000000 0.000000 -2.189811 -1.585291 3.017054 -4.423250 19.268087 3.129009 1.436527 19.919104 -6.306994 0.000000 0.000000 0.000000 -1.941953 -1.040810 2.655531 1.101073 1.987526 -9.334316 1.710978 -3.827001 -1.452523 0.563224 -8.076026 -59.013149 4.237229 -16.484296 -5.995949 0.000000 0.000000 0.000000 -1.460173 -1.435997 2.187228 1.907123 -2.345387 18.164507 -2.790882 -1.104735 -0.379748 15.714501 28.509725 45.588002 16.056708 26.173261 -6.341625 0.000000 0.000000 0.000000 
-1.217623 32.284763 3.280161 0.000000 0.000000 0.000000 176.923374 -54.601533 179.285144 0.483157 20.391479 22.394218 30.914464 22.810819 -0.022655 -11.610509 8.693923 -32.184090 -3.223344 2.795938 -4.405065 0.000000 0.000000 0.000000 176.504464 -53.804231 178.444033 -14.064895 -18.662001 -13.566215 18.084411 -11.209152 1.568858 -2.305021 1.458595 7.608666 -4.053773 -18.773892 4.167525 0.000000 0.000000 0.000000 176.756676 -57.390036 178.412246 9.901467 -1.913494 -0.668346 0.116355 -1.994664 3.092655 1.007962 -0.304565 -0.146024 0.000000 0.000000 0.000000 -2.261068 -1.962166 3.412990 -4.499019 16.321659 2.215807 0.915786 15.919841 -4.708051 0.000000 0.000000 0.000000 -1.878165 -1.393172 3.083623 1.162056 2.481374 -9.935902 1.440451 -3.949782 -1.219357 2.101123 -8.697170 -59.462281 3.657951 -16.788412 -5.984999 0.000000 0.000000 0.000000 -1.408061 -1.758400 2.606812 1.917926 -2.517156 17.777271 -2.800383 -0.854777 -0.311812 14.977024 29.435066 45.782287 15.651274 26.086634 -6.310056 0.000000 0.000000 0.000000 
-1.089512 32.035084 2.046974 0.000000 0.000000 0.000000 177.453492 -51.364447 179.395602 -1.241146 18.652893 26.056342 36.953618 22.742148 -0.737768 -4.765484 6.238520 -33.069969 -0.510284 3.290363 -9.148355 0.000000 0.000000 0.000000 177.325221 -50.564369 178.759096 -14.009691 -19.116118 -10.380070 19.367679 -9.518366 1.172652 -4.040148 1.752002 6.489963 -3.387465 -18.356903 3.529746 0.000000 0.000000 0.000000 177.678943 -53.526014 178.954453 10.342569 -2.406264 -0.689392 0.014991 -2.283828 3.278842 0.920730 0.059036 -0.147070 0.000000 0.000000 0.000000 -2.355926 -2.264824 3.560931 -4.417559 13.160286 1.727022 0.570900 11.895600 -3.373854 0.000000 0.000000 0.000000 -1.900317 -1.681567 3.278367 1.191231 2.813954 -10.180299 1.236823 -3.925432 -0.992327 3.706199 -8.982435 -59.978398 3.166335 -17.396244 -6.109261 0.000000 0.000000 0.000000 -1.450429 -2.026232 2.814763 1.918735 -2.563526 17.616673 -2.827252 -0.660222 -0.232891 14.341685 30.185758 45.910623 15.235316 26.077217 -6.088938 0.000000 0.000000 0.000000 
